HIERARCHY
ROOT Hips
{
  OFFSET 61.4559 95.5407 7.05222
  CHANNELS 6 Xposition Yposition Zposition Zrotation Xrotation Yrotation
  JOINT spine
  {
    OFFSET 0 7.96568 0.458067
    CHANNELS 3 Zrotation Xrotation Yrotation
    JOINT spine1
    {
      OFFSET 0 10.2431 0
      CHANNELS 3 Zrotation Xrotation Yrotation
      JOINT spine2
      {
        OFFSET 0 9.81475 0
        CHANNELS 3 Zrotation Xrotation Yrotation
        JOINT Neck
        {
          OFFSET 0 25.1986 1.20138
          CHANNELS 3 Zrotation Xrotation Yrotation
          JOINT Head
          {
            OFFSET 0 7.61315 0
            CHANNELS 3 Zrotation Xrotation Yrotation
            End Site
            {
              OFFSET 0 18.4281 -6.07733
            }
          }
        }
        JOINT RightShoulder
        {
          OFFSET -4.1327 10.5992 -0.575451
          CHANNELS 3 Zrotation Xrotation Yrotation
          JOINT RightArm
          {
            OFFSET 0 13.9018 0
            CHANNELS 3 Zrotation Xrotation Yrotation
            JOINT RightArmRoll
            {
              OFFSET 0 7.01789 0
              CHANNELS 3 Zrotation Xrotation Yrotation
              JOINT RightForeArm
              {
                OFFSET 0 20.4406 0
                CHANNELS 3 Zrotation Xrotation Yrotation
                JOINT RightForeArmRoll
                {
                  OFFSET 0 7.87515 0
                  CHANNELS 3 Zrotation Xrotation Yrotation
                  JOINT RightHand
                  {
                    OFFSET 0 15.8037 0
                    CHANNELS 3 Zrotation Xrotation Yrotation
                    End Site
                    {
                      OFFSET 0 0 0
                    }
                  }
                }
              }
            }
          }
        }
        JOINT LeftShoulder
        {
          OFFSET 4.1327 10.5992 -0.575451
          CHANNELS 3 Zrotation Xrotation Yrotation
          JOINT LeftArm
          {
            OFFSET 0 13.9018 0
            CHANNELS 3 Zrotation Xrotation Yrotation
            JOINT LeftArmRoll
            {
              OFFSET 0 7.01788 0
              CHANNELS 3 Zrotation Xrotation Yrotation
              JOINT LeftForeArm
              {
                OFFSET 0 20.4406 0
                CHANNELS 3 Zrotation Xrotation Yrotation
                JOINT LeftForeArmRoll
                {
                  OFFSET 0 7.87516 0
                  CHANNELS 3 Zrotation Xrotation Yrotation
                  JOINT LeftHand
                  {
                    OFFSET 0 15.8037 0
                    CHANNELS 3 Zrotation Xrotation Yrotation
                    End Site
                    {
                      OFFSET 0 0 0
                    }
                  }
                }
              }
            }
          }
        }
      }
    }
  }
  JOINT RightUpLeg
  {
    OFFSET -7.06048 -1.2947 -1.08609
    CHANNELS 3 Zrotation Xrotation Yrotation
    JOINT RightUpLegRoll
    {
      OFFSET 0 18.5308 0
      CHANNELS 3 Zrotation Xrotation Yrotation
      JOINT RightLeg
      {
        OFFSET 0 -22.9476 0
        CHANNELS 3 Zrotation Xrotation Yrotation
        JOINT RightLegRoll
        {
          OFFSET 0 23.0226 0
          CHANNELS 3 Zrotation Xrotation Yrotation
          JOINT RightFoot
          {
            OFFSET 0 19.1625 0
            CHANNELS 3 Zrotation Xrotation Yrotation
            JOINT RightToeBase
            {
              OFFSET 0 16.0188 0
              CHANNELS 3 Zrotation Xrotation Yrotation
              End Site
              {
                OFFSET 0.00678979 7.75782 -0.894206
              }
            }
          }
        }
      }
    }
  }
  JOINT LeftUpLeg
  {
    OFFSET 7.06048 -1.2947 -1.08609
    CHANNELS 3 Zrotation Xrotation Yrotation
    JOINT LeftUpLegRoll
    {
      OFFSET 0 18.5309 0
      CHANNELS 3 Zrotation Xrotation Yrotation
      JOINT LeftLeg
      {
        OFFSET 0 22.9475 0
        CHANNELS 3 Zrotation Xrotation Yrotation
        JOINT LeftLegRoll
        {
          OFFSET 0 23.2355 0
          CHANNELS 3 Zrotation Xrotation Yrotation
          JOINT LeftFoot
          {
            OFFSET 0 18.9496 0
            CHANNELS 3 Zrotation Xrotation Yrotation
            JOINT LeftToeBase
            {
              OFFSET 0 16.0188 0
              CHANNELS 3 Zrotation Xrotation Yrotation
              End Site
              {
                OFFSET -0.0304289 7.75782 -0.894206
              }
            }
          }
        }
      }
    }
  }
}
MOTION
Frames: 13
Frame Time: 0.00208333
54.4849 96.5085 7.12534 -1.19482 -4.57106 -3.63101 -0.120678 -0.0787765 -0.72012 -0.237778 3.84691 -1.40659 -0.220983 5.49176 -1.40421 -0.659162 5.00923 -0.716661 -3.8528 23.9196 -0.448358 67.8608 -8.10848 -5.26742 97.6369 10.2557 -45.6042 -5.41688e-015 -2.6339e-015 -3.18055e-015 -152.174 80.369 137.77 -7.91662e-006 7.06534e-006 -3 8.03033 -4.95117 0.697674 -60.5419 2.48327 -1.23956 -109.963 20.0125 36.265 8.04035e-006 -1.82511e-006 8.81494e-006 -51.4516 83.2148 54.2212 4.29577e-006 1.54105e-005 3.00001 -8.02975 -4.9511 -0.697574 179.78 3.8794 -0.523095 180 7.01526e-015 178.837 -178.864 10.5658 179.132 3.27169e-006 -1.13522e-006 0.00461251 -17.8051 66.5746 18.4007 8.12748 25.2332 -3.48389 -170.335 -2.43377 -5.41938 4.54188e-006 -4.6773e-006 -1.2676 -2.67488 -13.5848 0.0587923 -1.36435e-006 -1.14054e-006 -0.236649 19.3402 68.5877 -20.0514 -8.17775 26.5583 1.75191 
54.4359 96.4956 7.14123 -1.18367 -4.5532 -3.57529 -0.11921 -0.0736849 -0.718519 -0.234375 3.85707 -1.4049 -0.217612 5.50192 -1.40257 -0.553043 4.94528 -0.69752 -3.97062 23.865 -0.396 67.8824 -8.14324 -5.28591 97.5861 10.268 -45.6245 -1.25234e-014 -5.36719e-015 -0 -152.151 80.3535 137.731 -7.91662e-006 7.06534e-006 -3 8.03033 -4.95117 0.697674 -60.4933 2.5372 -1.27908 -109.971 20.0912 36.3499 8.04035e-006 -1.82511e-006 8.81494e-006 -51.5987 83.2155 54.3655 4.29577e-006 1.54105e-005 3.00001 -8.02975 -4.9511 -0.697574 179.768 3.89069 -0.495732 180 7.01526e-015 178.837 -178.903 10.5695 179.138 3.27169e-006 -1.13522e-006 0.00676 -17.8099 66.5808 18.4065 8.12748 25.2332 -3.48389 -170.327 -2.33931 -5.40989 4.54188e-006 -4.6773e-006 -1.26718 -2.65035 -13.6831 0.0627443 -1.36435e-006 -1.14054e-006 -0.237714 19.338 68.5852 -20.049 -8.17843 26.5786 1.72635 
54.4081 96.4767 7.14566 -1.17302 -4.53519 -3.52038 -0.117772 -0.0686699 -0.716883 -0.230982 3.86707 -1.40319 -0.214252 5.51192 -1.40091 -0.447852 4.88148 -0.678966 -4.08637 23.8105 -0.344523 67.9042 -8.17858 -5.30472 97.5354 10.2803 -45.6458 5.41688e-015 4.32357e-015 6.36111e-015 -152.128 80.337 137.691 -7.91662e-006 7.06534e-006 -3 8.03033 -4.95117 0.697674 -60.4443 2.59106 -1.31856 -109.979 20.1688 36.4342 8.04035e-006 -1.82511e-006 8.81494e-006 -51.7454 83.2167 54.5099 4.29577e-006 1.54105e-005 3.00001 -8.02975 -4.9511 -0.697574 179.757 3.90222 -0.468394 180 7.01527e-015 178.838 -178.942 10.5737 179.144 3.27169e-006 -1.13522e-006 0.00896696 -17.8147 66.5871 18.4124 8.12748 25.2332 -3.48389 -170.318 -2.245 -5.4005 4.54188e-006 -4.6773e-006 -1.26673 -2.62555 -13.7814 0.0666995 -1.36435e-006 -1.14054e-006 -0.238763 19.3361 68.5831 -20.0469 -8.17911 26.5995 1.69999 
54.3872 96.4812 7.14972 -1.16273 -4.51708 -3.46602 -0.116355 -0.0637085 -0.715222 -0.227596 3.87697 -1.40146 -0.210898 5.52182 -1.39923 -0.3433 4.81778 -0.660825 -4.20062 23.7562 -0.293674 67.9262 -8.21432 -5.32376 97.4848 10.2928 -45.6678 -6.16232e-015 -5.36719e-015 -3.18055e-015 -152.105 80.3197 137.651 -7.91662e-006 7.06534e-006 -3 8.03033 -4.95117 0.697674 -60.3952 2.64486 -1.35802 -109.988 20.2458 36.5179 8.04035e-006 -1.82511e-006 8.81494e-006 -51.892 83.2184 54.6545 4.29577e-006 1.54105e-005 3.00001 -8.02975 -4.9511 -0.697574 179.746 3.91392 -0.441073 180 7.01527e-015 178.838 -178.981 10.5783 179.149 3.27169e-006 -1.13522e-006 0.0112155 -17.8195 66.5934 18.4183 8.12748 25.2332 -3.48389 -170.31 -2.1508 -5.39119 4.54188e-006 -4.6773e-006 -1.26628 -2.60055 -13.8796 0.0706579 -1.36435e-006 -1.14054e-006 -0.239801 19.3343 68.581 -20.045 -8.17979 26.6208 1.67307 
54.3594 96.4778 7.11769 -1.15266 -4.49891 -3.41199 -0.114949 -0.0587778 -0.713548 -0.224214 3.88681 -1.39972 -0.207549 5.53166 -1.39754 -0.239096 4.75414 -0.642922 -4.31399 23.702 -0.243201 67.9483 -8.25029 -5.34293 97.4344 10.3053 -45.6903 4.17448e-015 4.37326e-015 -3.18055e-015 -152.083 80.3019 137.61 -7.91662e-006 7.06534e-006 -3 8.03033 -4.95117 0.697674 -60.3459 2.69864 -1.39745 -109.997 20.3223 36.6013 8.04035e-006 -1.82511e-006 8.81494e-006 -52.0386 83.2202 54.7992 4.29577e-006 1.54105e-005 3.00001 -8.02975 -4.9511 -0.697574 179.735 3.92572 -0.413761 180 7.01527e-015 178.838 -179.02 10.5831 179.155 3.27169e-006 -1.13522e-006 0.0134879 -17.8243 66.5997 18.4243 8.12748 25.2332 -3.48389 -170.3 -2.05665 -5.38194 4.54188e-006 -4.6773e-006 -1.26583 -2.57544 -13.9778 0.0746198 -1.36435e-006 -1.14054e-006 -0.240832 19.3326 68.5792 -20.0432 -8.18045 26.6424 1.64583 
54.3294 96.4774 7.12634 -1.14267 -4.48072 -3.35805 -0.113547 -0.0538547 -0.71187 -0.220833 3.89663 -1.39798 -0.204201 5.54148 -1.39585 -0.13495 4.69051 -0.625081 -4.42705 23.6477 -0.192854 67.9703 -8.28632 -5.36213 97.3839 10.3177 -45.7129 -4.47266e-015 1.98785e-016 -3.18055e-015 -152.06 80.284 137.57 -7.91662e-006 7.06534e-006 -3 8.03033 -4.95117 0.697674 -60.2965 2.7524 -1.43689 -110.006 20.3986 36.6849 8.04035e-006 -1.82511e-006 8.81494e-006 -52.1852 83.2221 54.944 4.29577e-006 1.54105e-005 3.00001 -8.02975 -4.9511 -0.697574 179.724 3.93754 -0.386451 180 7.01527e-015 178.838 -179.06 10.5881 179.16 3.27169e-006 -1.13522e-006 0.0157662 -17.8292 66.6059 18.4302 8.12748 25.2332 -3.48389 -170.291 -1.96251 -5.3727 4.54188e-006 -4.6773e-006 -1.26538 -2.55028 -14.0759 0.0785852 -1.36435e-006 -1.14054e-006 -0.241862 19.3309 68.5773 -20.0414 -8.18109 26.6641 1.61849 
54.2947 96.475 7.14921 -1.13262 -4.46255 -3.30394 -0.112139 -0.0489163 -0.710199 -0.217451 3.90648 -1.39625 -0.200853 5.55133 -1.39417 -0.0305689 4.62685 -0.607127 -4.5404 23.5934 -0.142383 67.9923 -8.32223 -5.38128 97.3334 10.3302 -45.7353 1.97791e-014 1.5207e-014 3.18055e-015 -152.038 80.2664 137.53 -7.91662e-006 7.06534e-006 -3 8.03033 -4.95117 0.697674 -60.2471 2.80617 -1.47634 -110.016 20.4748 36.7688 8.04035e-006 -1.82511e-006 8.81494e-006 -52.3319 83.2238 55.0889 4.29577e-006 1.54105e-005 3.00001 -8.02975 -4.9511 -0.697574 179.713 3.94931 -0.359136 180 7.01527e-015 178.838 -179.099 10.5929 179.166 3.27169e-006 -1.13522e-006 0.0180327 -17.834 66.6122 18.4361 8.12748 25.2332 -3.48389 -170.282 -1.86834 -5.36347 4.54188e-006 -4.6773e-006 -1.26492 -2.52516 -14.1741 0.0825544 -1.36435e-006 -1.14054e-006 -0.242895 19.3292 68.5753 -20.0395 -8.18171 26.6856 1.59131 
54.2681 96.4742 7.14788 -1.12238 -4.44444 -3.24944 -0.110717 -0.0439396 -0.708545 -0.214065 3.91641 -1.39452 -0.1975 5.56126 -1.39249 0.0743391 4.56312 -0.588886 -4.65463 23.539 -0.0915361 68.0141 -8.35785 -5.40028 97.2828 10.3426 -45.7572 2.31087e-014 1.65985e-014 -0 -152.016 80.2492 137.49 -7.91662e-006 7.06534e-006 -3 8.03033 -4.95117 0.697674 -60.1977 2.85998 -1.51582 -110.026 20.5512 36.8533 8.04035e-006 -1.82511e-006 8.81494e-006 -52.4789 83.2252 55.2338 4.29577e-006 1.54105e-005 3.00001 -8.02975 -4.9511 -0.697574 179.702 3.96096 -0.331806 180 7.01527e-015 178.838 -179.138 10.5974 179.171 3.27169e-006 -1.13522e-006 0.0202694 -17.8389 66.6185 18.4421 8.12748 25.2332 -3.48389 -170.274 -1.77409 -5.3542 4.54188e-006 -4.6773e-006 -1.26448 -2.50016 -14.2723 0.0865274 -1.36435e-006 -1.14054e-006 -0.243936 19.3273 68.5733 -20.0375 -8.18229 26.7068 1.56451 
54.2111 96.4659 7.12812 -1.1118 -4.42643 -3.1943 -0.109272 -0.0389016 -0.70692 -0.210673 3.92646 -1.39282 -0.194139 5.57131 -1.39084 0.180068 4.49927 -0.570182 -4.77033 23.4844 -0.040065 68.0357 -8.39299 -5.41903 97.2322 10.3548 -45.7782 6.5102e-015 4.37326e-015 -0 -151.994 80.233 137.451 -7.91662e-006 7.06534e-006 -3 8.03033 -4.95117 0.697674 -60.1484 2.91384 -1.55534 -110.035 20.6279 36.9387 8.04035e-006 -1.82511e-006 8.81494e-006 -52.626 83.226 55.3785 4.29577e-006 1.54105e-005 3.00001 -8.02975 -4.9511 -0.697574 179.691 3.97241 -0.304456 180 7.01527e-015 178.838 -179.177 10.6014 179.177 3.27169e-006 -1.13522e-006 0.0224585 -17.8437 66.6248 18.4479 8.12748 25.2332 -3.48389 -170.266 -1.67972 -5.34488 4.54188e-006 -4.6773e-006 -1.26404 -2.47536 -14.3706 0.0905044 -1.36435e-006 -1.14054e-006 -0.24499 19.3253 68.571 -20.0354 -8.18284 26.7275 1.53833 
54.1921 96.4669 7.13295 -1.10074 -4.40858 -3.13829 -0.107795 -0.0337793 -0.705333 -0.207272 3.93668 -1.39114 -0.190769 5.58153 -1.38921 0.286912 4.43526 -0.550842 -4.88808 23.4295 0.0122795 68.057 -8.42749 -5.43744 97.1814 10.3669 -45.7981 -3.97569e-016 -2.08724e-015 -0 -151.972 80.218 137.414 -7.91662e-006 7.06534e-006 -3 8.03033 -4.95117 0.697674 -60.0992 2.96778 -1.59493 -110.044 20.7053 37.0254 8.04035e-006 -1.82511e-006 8.81494e-006 -52.7735 83.2261 55.523 4.29577e-006 1.54105e-005 3.00001 -8.02975 -4.9511 -0.697574 179.679 3.9836 -0.277077 180 7.01527e-015 178.839 -179.216 10.6048 179.183 3.27169e-006 -1.13522e-006 0.0245822 -17.8484 66.631 18.4538 8.12748 25.2332 -3.48389 -170.258 -1.58517 -5.33548 4.54188e-006 -4.6773e-006 -1.26361 -2.45082 -14.469 0.0944856 -1.36435e-006 -1.14054e-006 -0.246062 19.323 68.5685 -20.0329 -8.18334 26.7475 1.513 
54.1691 96.4505 7.08569 -1.08908 -4.39091 -3.08116 -0.106277 -0.0285497 -0.703795 -0.20386 3.94711 -1.38949 -0.187387 5.59197 -1.38762 0.395166 4.37104 -0.53069 -5.00847 23.3742 0.0657459 68.0779 -8.46117 -5.45541 97.1304 10.3788 -45.8165 -3.97569e-015 -1.09332e-015 3.18055e-015 -151.95 80.2046 137.377 -7.91662e-006 7.06534e-006 -3 8.03033 -4.95117 0.697674 -60.0503 3.02181 -1.63459 -110.053 20.7835 37.1135 8.04035e-006 -1.82511e-006 8.81494e-006 -52.9213 83.2252 55.6672 4.29577e-006 1.54105e-005 3.00001 -8.02975 -4.9511 -0.697574 179.667 3.99444 -0.249662 180 7.01527e-015 178.839 -179.254 10.6074 179.188 3.27169e-006 -1.13522e-006 0.0266226 -17.8531 66.6373 18.4596 8.12748 25.2332 -3.48389 -170.251 -1.49041 -5.32597 4.54188e-006 -4.6773e-006 -1.26321 -2.42664 -14.5675 0.0984711 -1.36435e-006 -1.14054e-006 -0.247156 19.3204 68.5656 -20.0301 -8.1838 26.7667 1.48878 
54.1292 96.4531 7.09422 -1.07666 -4.37347 -3.02268 -0.104711 -0.0231899 -0.702316 -0.200433 3.95781 -1.38789 -0.183988 5.60266 -1.38606 0.505126 4.30657 -0.509551 -5.13208 23.3186 0.120582 68.0983 -8.49386 -5.47285 97.0791 10.3904 -45.8331 1.31198e-014 1.18277e-014 -6.36111e-015 -151.928 80.193 137.343 -7.91662e-006 7.06534e-006 -3 8.03033 -4.95117 0.697674 -60.0017 3.07597 -1.67434 -110.062 20.8627 37.2035 8.04035e-006 -1.82511e-006 8.81494e-006 -53.0693 83.2233 55.8109 4.29577e-006 1.54105e-005 3.00001 -8.02975 -4.9511 -0.697574 179.654 4.00487 -0.222204 180 7.01527e-015 178.839 -179.292 10.6091 179.194 3.27169e-006 -1.13522e-006 0.028562 -17.8577 66.6436 18.4653 8.12748 25.2332 -3.48389 -170.245 -1.39539 -5.31632 4.54188e-006 -4.6773e-006 -1.26282 -2.40289 -14.6661 0.102461 -1.36435e-006 -1.14054e-006 -0.248277 19.3174 68.5622 -20.0269 -8.18421 26.7848 1.46588 
54.1093 96.4603 7.10125 -1.06335 -4.35629 -2.9626 -0.103086 -0.0176769 -0.700908 -0.196989 3.96881 -1.38633 -0.180571 5.61367 -1.38456 0.61709 4.24181 -0.487252 -5.25949 23.2624 0.177035 68.1181 -8.52538 -5.48966 97.0275 10.4018 -45.8476 -4.67144e-015 2.5842e-015 -6.36111e-015 -151.906 80.1836 137.31 -7.91662e-006 7.06534e-006 -3 8.03033 -4.95117 0.697674 -59.9533 3.13027 -1.7142 -110.069 20.9431 37.2955 8.04035e-006 -1.82511e-006 8.81494e-006 -53.2177 83.2201 55.954 4.29577e-006 1.54105e-005 3.00001 -8.02975 -4.9511 -0.697574 179.641 4.01482 -0.194694 180 7.01527e-015 178.839 -179.33 10.6096 179.199 3.27169e-006 -1.13522e-006 0.0303824 -17.8623 66.6499 18.471 8.12748 25.2332 -3.48389 -170.24 -1.30006 -5.30651 4.54188e-006 -4.6773e-006 -1.26246 -2.37964 -14.7648 0.106456 -1.36435e-006 -1.14054e-006 -0.249431 19.314 68.5583 -20.0232 -8.18456 26.8016 1.44456 
